<svg xmlns="http://www.w3.org/2000/svg" xmlns:xlink="http://www.w3.org/1999/xlink" width="97.886" height="105.49" viewBox="0 0 97.886 105.49">
  <defs>
    <style>
      .cls-1 {
        fill: url(#linear-gradient);
      }

      .cls-2 {
        fill: url(#linear-gradient-2);
      }
    </style>
    <linearGradient id="linear-gradient" y1="0.5" x2="1" y2="0.5" gradientUnits="objectBoundingBox">
      <stop offset="0" stop-color="#307ea4"/>
      <stop offset="0.613" stop-color="#2499a8"/>
      <stop offset="1" stop-color="#20a6ab"/>
    </linearGradient>
    <linearGradient id="linear-gradient-2" y1="0.5" x2="1" y2="0.5" gradientUnits="objectBoundingBox">
      <stop offset="0" stop-color="#307ea4"/>
      <stop offset="0.138" stop-color="#2a8ca6"/>
      <stop offset="0.345" stop-color="#249aa9"/>
      <stop offset="0.594" stop-color="#21a3aa"/>
      <stop offset="1" stop-color="#20a6ab"/>
    </linearGradient>
  </defs>
  <g id="DS-Logo" transform="translate(-679.433 -426.494)">
    <path id="Path_47" data-name="Path 47" class="cls-1" d="M724.485,426.494q-20.575,0-32.835,9.311-12.218,9.324-12.217,25.559a33.481,33.481,0,0,0,7.721,22.2q7.721,9.244,26.527,16.408,5.11,1.932,9.245,3.728c5.565,2.414,14.485,1.124,16.723-4.256l.574-1.38c1.74-4.184-2.67-10.118-7.038-11.91q-1.518-.623-3.129-1.256-13.448-5.242-18.637-8.431a22.739,22.739,0,0,1-7.438-6.8,15.941,15.941,0,0,1-2.263-8.645,14.4,14.4,0,0,1,5.657-11.846q5.641-4.482,16.544-4.482,14.38,0,32.693,7.257c.028,0,.028.027.056.027l7.155-17.315A101.389,101.389,0,0,0,724.485,426.494Z"/>
    <path id="Path_48" data-name="Path 48" class="cls-2" d="M732.267,531.984q20.575,0,32.835-9.311,12.216-9.324,12.217-25.559a33.488,33.488,0,0,0-7.721-22.2q-7.721-9.244-26.527-16.408-5.11-1.932-9.245-3.728c-5.565-2.414-14.485-1.124-16.723,4.256l-.574,1.38c-1.74,4.184,2.669,10.118,7.038,11.91q1.518.623,3.129,1.256,13.448,5.242,18.637,8.431a22.739,22.739,0,0,1,7.438,6.8,15.941,15.941,0,0,1,2.263,8.645,14.4,14.4,0,0,1-5.657,11.846q-5.641,4.482-16.544,4.482-14.381,0-32.693-7.257c-.028,0-.028-.027-.056-.027l-7.155,17.315A101.386,101.386,0,0,0,732.267,531.984Z"/>
  </g>
</svg>
